<svg id="Camada_1" data-name="Camada 1" xmlns="http://www.w3.org/2000/svg" viewBox="0 0 694 694"><defs><style>.cls-1{fill:#41aa7d;}</style></defs><title>logo_FS_sticker_v1</title><path class="cls-1" d="M347,0C155.36,0,0,155.36,0,347S155.36,694,347,694,694,538.65,694,347,538.65,0,347,0Zm3.44,110H402.9v70.68H350.44Zm-63.75,30h52.46v40.68H286.69Zm-56.79,63.8Q254.17,190,285,189.2H399.36q44.53-.75,75.7,28.52Q507,246,506.24,286.85v1.42H420.56a2.45,2.45,0,0,1,.25-.74c.49-.43.49-.68,0-.68.18-7.07-2.61-13.08-8.25-17.92a25,25,0,0,0-19.34-7.31H297.49a28,28,0,0,0-19.34,7.56,22.45,22.45,0,0,0-7.75,14.08,76,76,0,0,1-40.5-79.49ZM339.15,591.54H286.69V520.87h52.46Zm63.75-30H350.44V520.87H402.9ZM475,493.26q-27.92,18.93-65,19.08H397.74v-.13H289v.13h-5.21q-45.75-.2-77.81-29.2-32.08-29.29-32.11-71.05H256.2v.49a25.79,25.79,0,0,0,9.18,20,31.7,31.7,0,0,0,21.94,8.24H402a31.83,31.83,0,0,0,22.13-8.24c6.14-5.46,9.18-12.15,9-20q0-.54,0-1.08A76,76,0,0,1,475,493.26Zm21-18.34a96,96,0,0,0-89.56-90.7h0C405,384.05,285,384,285,384q-44.37,0-75.45-28.27-31.15-28.56-31.19-68.88,0-40.07,30.72-67.77A96,96,0,0,0,287.51,310c3.08,1.06,122.45,1.59,122.45,1.59q46,0,78.12,29.51,32.55,29,32.05,71Q520.13,448.15,496,474.92Z"/></svg>