<svg id="Camada_1" data-name="Camada 1" xmlns="http://www.w3.org/2000/svg" viewBox="0 0 714.05 714.05"><title>logo_FS_sticker_dark_outline</title><path d="M357,10c191.65,0,347,155.36,347,347S548.67,704,357,704,10,548.67,10,357,165.38,10,357,10m3.44,180.65h52.46V120H360.46v70.68m-63.75,0h52.46V150H296.71v40.68M280.42,293.28a22.45,22.45,0,0,1,7.75-14.08,28,28,0,0,1,19.34-7.56h95.73l1.31,0a24.89,24.89,0,0,1,18,7.34c5.64,4.84,8.43,10.85,8.25,17.92.49,0,.49.25,0,.68a2.45,2.45,0,0,0-.25.74h85.68v-1.42q.66-40.83-31.18-69.13-30.37-28.47-73.49-28.54l-2.21,0H295q-30.8.78-55.07,14.57a76,76,0,0,0,40.5,79.49m136.05,101h0A96,96,0,0,1,506,484.94q24.09-26.76,24.11-62.83.47-42-32-71Q466,321.63,420,321.61s-119.37-.53-122.45-1.59a96,96,0,0,1-78.46-90.92q-30.69,27.77-30.72,67.77,0,40.36,31.19,68.88Q250.59,394,295,394s120,.05,121.48.22M297.34,450.87a31.7,31.7,0,0,1-21.94-8.24,25.79,25.79,0,0,1-9.18-20v-.49H183.89q0,41.75,32.11,71.05,32.08,29,77.81,29.2H299v-.13H407.76v.13H420q37.14-.15,65-19.08a76,76,0,0,0-41.94-81.76q0,.54,0,1.08c.19,7.88-2.85,14.57-9,20A31.83,31.83,0,0,1,412,450.87H297.34m63.12,120.69h52.46V530.89H360.46v40.67m-63.75,30h52.46V530.89H296.71v70.67M357,5A352.09,352.09,0,0,0,220,681.36,352,352,0,0,0,605.93,108.12,351,351,0,0,0,357,5Zm8.44,120h42.46v60.68H365.46V125Zm-63.75,30h42.46v30.68H301.71V155Zm-6.66,49.23H409.46l2.13,0c27.25,0,50.83,9.15,70.07,27.19l0,.05.05,0c19.35,17.16,29,37.41,29.5,61.81H435.68a27.3,27.3,0,0,0-9.72-18,29.83,29.83,0,0,0-21.41-8.66l-1.41,0H307.51a33,33,0,0,0-22.69,8.85,28.22,28.22,0,0,0-7.5,10.28A70.75,70.75,0,0,1,244,225.61a72.91,72.91,0,0,1,.52-8.65c14.87-8,31.86-12.26,50.53-12.74Zm121.43,185c-5.3-.12-46.12-.2-121.49-.23-28.18,0-52.43-9.07-72.08-27-19.89-18.23-29.56-39.56-29.56-65.19,0-22,7.12-40.63,21.71-56.72a101,101,0,0,0,81.57,84.79h0c2.16.39,10.7.81,63.24,1.28,29.89.26,59.79.39,60.09.39,29.26,0,54.4,9.49,74.76,28.19l0,0,0,0c20.74,18.48,30.68,40.46,30.38,67.2v.05a86.09,86.09,0,0,1-15.51,50.29,100.93,100.93,0,0,0-92.84-83.15h-.32ZM189,427.11h72.5a30.72,30.72,0,0,0,10.56,19.26,36.67,36.67,0,0,0,25.26,9.5H412a36.76,36.76,0,0,0,25.47-9.51,30.41,30.41,0,0,0,10-16.72,71,71,0,0,1,32.94,70.69c-17.3,11.21-37.63,16.94-60.46,17h-7.2v-.13H294v.13h-.21c-29.05-.12-54.11-9.51-74.46-27.91-18.91-17.26-29.1-38.22-30.33-62.34ZM365.46,535.89h42.46v30.67H365.46V535.89Zm-63.75,0h42.46v60.67H301.71V535.89Z"/></svg>