<svg id="Camada_1" data-name="Camada 1" xmlns="http://www.w3.org/2000/svg" viewBox="0 0 710.43 710.43"><defs><style>.cls-1{fill:#fff;}</style></defs><title>logo_FS_sticker_light_outline</title><path class="cls-1" d="M355.21,8.21c191.65,0,347,155.36,347,347s-155.36,347-347,347-347-155.36-347-347,155.36-347,347-347m3.44,180.65h52.46V118.18H358.65v70.68m-63.75,0h52.46V148.18H294.9v40.68M278.61,291.47a22.45,22.45,0,0,1,7.75-14.08,28,28,0,0,1,19.34-7.56h95.73c.44,0,.88,0,1.31,0a24.88,24.88,0,0,1,18,7.33C426.41,282,429.2,288,429,295.06c.49,0,.49.25,0,.68a2.45,2.45,0,0,0-.25.74h85.68v-1.42q.66-40.83-31.18-69.13-30.37-28.47-73.49-28.53H293.18q-30.8.78-55.07,14.57a76,76,0,0,0,40.5,79.49m136.05,101h0a96,96,0,0,1,89.56,90.7q24.09-26.76,24.11-62.83.46-42-32.05-71-32.09-29.49-78.12-29.51s-119.37-.53-122.45-1.59a96,96,0,0,1-78.46-90.92q-30.69,27.77-30.72,67.77,0,40.37,31.19,68.88,31.05,28.28,75.45,28.27s120,.05,121.48.22M295.53,449.06a31.7,31.7,0,0,1-21.94-8.24,25.79,25.79,0,0,1-9.18-20v-.49H182.08q0,41.74,32.11,71.05,32.09,29,77.81,29.2h5.21v-.13H406v.13h12.22q37.14-.15,65-19.08a76,76,0,0,0-41.94-81.76q0,.54,0,1.08c.19,7.88-2.85,14.57-9,20a31.83,31.83,0,0,1-22.13,8.24H295.53m63.12,120.69h52.46V529.08H358.65v40.67m-63.75,30h52.46V529.08H294.9v70.67M355.21,3.21a352.09,352.09,0,0,0-137,676.34,352.09,352.09,0,0,0,274-648.67,349.76,349.76,0,0,0-137-27.67Zm8.44,120h42.46v60.68H363.65V123.18Zm-63.75,30h42.46v30.68H299.9V153.18Zm-6.65,49.23H409.78c27.25,0,50.83,9.14,70.07,27.18l0,0,.05,0c19.35,17.16,29,37.41,29.5,61.81H433.87a27.25,27.25,0,0,0-9.72-18,29.82,29.82,0,0,0-21.41-8.65c-.46,0-.94,0-1.41,0H305.7A33,33,0,0,0,283,273.68a28.22,28.22,0,0,0-7.5,10.28,70.75,70.75,0,0,1-33.32-60.16,72.91,72.91,0,0,1,.52-8.65c14.87-8,31.86-12.25,50.54-12.74Zm121.42,185c-5.3-.13-46.12-.2-121.49-.24-28.18,0-52.43-9.07-72.08-27-19.89-18.23-29.56-39.56-29.56-65.19,0-22,7.12-40.63,21.71-56.72a101,101,0,0,0,81.57,84.79h0c2.16.39,10.7.82,63.24,1.28,29.89.26,59.79.39,60.09.39,29.26,0,54.4,9.49,74.76,28.19l0,0,0,0c20.74,18.48,30.68,40.46,30.38,67.2v.05a86.07,86.07,0,0,1-15.51,50.29A100.93,100.93,0,0,0,415,387.44h-.32v0ZM187.21,425.3h72.5a30.72,30.72,0,0,0,10.56,19.26,36.67,36.67,0,0,0,25.26,9.5H410.17a36.76,36.76,0,0,0,25.47-9.51,30.41,30.41,0,0,0,10-16.72,71,71,0,0,1,32.94,70.69c-17.3,11.21-37.63,16.94-60.46,17H411v-.13H292.21v.13H292c-29.05-.12-54.11-9.51-74.46-27.91-18.91-17.26-29.1-38.22-30.33-62.34ZM363.65,534.08h42.46v30.67H363.65V534.08Zm-63.75,0h42.46v60.67H299.9V534.08Z"/></svg>