<svg id="Camada_1" data-name="Camada 1" xmlns="http://www.w3.org/2000/svg" viewBox="0 0 900 900"><defs><style>.cls-1{fill:#41aa7d;}.cls-2{fill:#aeff63;}</style></defs><title>logo_FS_colorido</title><path class="cls-1" d="M389.69,239.22v40.67h52.46V239.22Z"/><path class="cls-1" d="M453.44,620.11v40.67H505.9V620.11Z"/><path class="cls-1" d="M453.44,209.22v70.67H505.9V209.22Z"/><path class="cls-1" d="M389.69,620.11v70.67h52.46V620.11Z"/><path class="cls-2" d="M579.15,579.26A76.19,76.19,0,0,1,578,592.51q-27.91,18.93-65,19.08H500.74v-.14H392v.14h-5.21Q341,611.38,309,582.39q-32.09-29.31-32.11-71.05H359.2v.48a25.79,25.79,0,0,0,9.18,20,31.7,31.7,0,0,0,21.94,8.24H505a31.83,31.83,0,0,0,22.13-8.24c6.14-5.46,9.18-12.15,9-20,0-.35,0-.72,0-1.08A76.12,76.12,0,0,1,579.15,579.26Z"/><path class="cls-1" d="M623.13,511.34q0,36.06-24.11,62.83a96,96,0,0,0-89.56-90.7h0C508,483.3,388,483.24,388,483.24q-44.37,0-75.45-28.27-31.15-28.56-31.19-68.88,0-40.05,30.72-67.77a96,96,0,0,0,78.46,90.92c3.08,1.06,122.45,1.6,122.45,1.6q46,0,78.12,29.5Q623.63,469.35,623.13,511.34Z"/><path class="cls-2" d="M609.24,386.09v1.42H523.56a2.5,2.5,0,0,1,.25-.73c.49-.44.49-.69,0-.69.18-7.06-2.61-13.08-8.25-17.91a25.06,25.06,0,0,0-19.34-7.32H400.49a28,28,0,0,0-19.34,7.57,22.45,22.45,0,0,0-7.75,14.08A76,76,0,0,1,332.9,303q24.27-13.78,55.07-14.56H502.36q44.53-.75,75.7,28.52Q610,345.25,609.24,386.09Z"/></svg>